<?xml version="1.0" encoding="utf-8"?>
<!-- Generator: Adobe Illustrator 20.1.0, SVG Export Plug-In . SVG Version: 6.00 Build 0)  -->
<svg version="1.1" id="Layer_1" xmlns="http://www.w3.org/2000/svg" xmlns:xlink="http://www.w3.org/1999/xlink" x="0px" y="0px"
	 viewBox="0 0 142.9 32.5" style="enable-background:new 0 0 142.9 32.5;" xml:space="preserve">
<style type="text/css">
	.st0{fill:#FFFFFF;}
</style>
<g>
	<path class="st0" d="M28.5,22.7c0,8.3-8.3,9.8-11.8,9.8h-4.6c-8.4,0-12-4.1-12.1-12.7v-7C0,4.6,4.3,0,12.3,0h2.9
		c3.4,0,7,0.5,12.4,1.4v10.8h-8.1l-1-3.9c-1.2-0.1-2.6-0.2-5.1-0.2c-2.3,0-3.7,1.6-3.7,4.1v8.8c0,2.1,1.3,3.3,3.5,3.3H17
		c1.4,0,2.5-0.7,2.5-2.1v-0.6c-1.8-0.2-3.8-0.5-6-0.8v-6h14.9V22.7z"/>
	<path class="st0" d="M42.9,32.5c-9.5,0-12.3-2.8-12.4-12.1v-0.8c0-9.6,2.8-12.5,12.4-12.5h1.4c9.2,0,11.9,2.9,11.9,12.5v0.8
		c-0.1,9.2-2.8,12.1-11.9,12.1H42.9z M44.1,25.9c2.1,0,2.9-0.7,2.9-2.7v-6.5c0-2.2-0.7-3-2.9-3h-1.5c-2.1,0-2.8,0.8-2.8,3v6.5
		c0,2,0.7,2.7,2.8,2.7H44.1z"/>
	<path class="st0" d="M85.7,14.2c-1.1,0.3-2.1,0.5-3.1,0.7l-6.6,17h-9.8l-6.4-17.1c-0.8-0.1-1.7-0.3-2.7-0.6V7.7h13.7v6.5
		c-0.6,0.1-1.2,0.2-1.7,0.3l2.9,9.8h0l3.7-9.6c-0.7-0.1-1.4-0.3-2.1-0.5V7.7h12.2V14.2z"/>
	<path class="st0" d="M113.5,11.4h-6l-1.1-3.1h-6.8v4.1h6.2v7.9h-6.2v3.9h6.9l1.1-3.1h6v10.8H87V25c1-0.2,2-0.4,2.9-0.6V8.1
		c-1-0.1-2-0.3-3-0.6V0.6h26.6V11.4z"/>
	<path class="st0" d="M139.9,24.8c1,0.1,2,0.4,3,0.6v6.5h-14.2v-6.5c0.4-0.1,0.8-0.1,1.2-0.2l-2.1-2.8h0l-1.9,2.7
		c0.5,0.1,1,0.2,1.6,0.3v6.5H115v-6.5c0.8-0.2,1.6-0.4,2.3-0.5l4.8-5l-4.1-5.1c-1-0.2-2-0.4-2.9-0.6V7.7h14.2v6.5
		c-0.4,0.1-0.8,0.2-1.2,0.2l2,2.8h0l2.1-2.6c-0.5-0.1-1.1-0.2-1.6-0.4V7.7h12.3v6.5c-0.8,0.2-1.6,0.4-2.3,0.5L136,20L139.9,24.8z"/>
</g>
</svg>
